<svg xmlns="http://www.w3.org/2000/svg" width="512" height="512">
  <g>
    <path fill="#787878" d="m236.618791,314.867502l-233.379547,-232.923563c5.707233,-12.315853 18.047196,-20.783001 32.546652,-20.783001l440.382424,0c14.345207,0 26.839419,8.467149 32.546652,20.783001l-233.533797,232.923563c-5.090235,5.080289 -12.031464,8.005304 -19.281192,8.005304s-14.190957,-2.925015 -19.281192,-8.005304z"/>
    <path fill="#787878" d="m511.799962,122.278356l0,288.190952c0,19.705364 -16.041952,35.715973 -35.785892,35.715973l-440.228174,0c-19.743941,0 -35.785892,-16.010608 -35.785892,-35.715973l0,-288.190952l214.715353,214.295836c10.951717,10.930319 25.605423,16.934297 41.184626,16.934297s30.078659,-6.003978 41.184626,-16.934297l214.715353,-214.295836z"/>
  </g>
</svg>
